<?xml version="1.0" encoding="UTF-8"?>
<svg id="Layer_1" data-name="Layer 1" xmlns="http://www.w3.org/2000/svg" viewBox="0 0 595.58 514.5">
  <defs>
    <style>
      .cls-1 {
        fill: #af0;
      }
    </style>
  </defs>
  <g id="Layer_2" data-name="Layer 2">
    <g id="Layer_1-2" data-name="Layer 1-2">
      <path class="cls-1" d="M191.11,213.16h213.16V0h-213.16v213.16ZM267.4,94l101,99.37h-149.63l48.63-99.37ZM282.79,77.59l101.73-50.59v150.7l-101.73-100.11ZM266,60.87l-39.76-41.12h122.31l-82.55,41.12ZM250.54,77.3l-39.68,81.08V36.21l39.68,41.09Z"/>
      <polygon class="cls-1" points="378.15 441.5 340.54 363.94 316.08 363.94 353.72 441.59 378.11 441.59 343.21 514.5 367.61 514.5 439.68 363.94 415.27 363.94 378.15 441.5"/>
      <polygon class="cls-1" points="45.76 436.68 83.48 514.5 107.95 514.5 70.22 436.68 45.76 436.68"/>
      <polygon class="cls-1" points="77.13 363.94 19.76 433.74 19.76 363.94 0 363.94 0 514.5 19.76 514.5 19.76 467.39 106.23 363.94 77.13 363.94"/>
      <polygon class="cls-1" points="213.32 363.94 238.06 459.07 188.48 459.07 213.22 363.94 190.47 363.94 151.32 514.5 174.07 514.5 183.34 478.83 243.2 478.83 252.47 514.5 275.22 514.5 236.07 363.94 213.32 363.94"/>
      <polygon class="cls-1" points="556.43 363.94 533.68 363.94 558.42 459.07 508.84 459.07 533.58 363.94 510.83 363.94 471.69 514.5 494.43 514.5 503.7 478.83 563.56 478.83 572.83 514.5 595.58 514.5 556.43 363.94"/>
    </g>
  </g>
</svg>